<mxfile host="app.diagrams.net" modified="2021-12-22T12:17:11.061Z" agent="5.0 (Macintosh; Intel Mac OS X 10_15_7) AppleWebKit/537.36 (KHTML, like Gecko) Chrome/96.0.4664.110 Safari/537.36" etag="gCD7G_01eJzRhHEHdsDm" version="16.0.0" type="github">
  <diagram id="Mapb6CoFABpFHY_pfQJO" name="第 1 页">
    <mxGraphModel dx="1426" dy="794" grid="1" gridSize="10" guides="1" tooltips="1" connect="1" arrows="1" fold="1" page="1" pageScale="1" pageWidth="827" pageHeight="1169" background="#ffffff" math="0" shadow="0">
      <root>
        <mxCell id="0" />
        <mxCell id="1" parent="0" />
        <mxCell id="Yzk4ijdV4WM66uibdq7K-96" value="" style="rounded=0;whiteSpace=wrap;html=1;shadow=1;sketch=1;fontFamily=Comic Sans MS;fontSize=14;opacity=40;dashed=1;fillColor=#f8cecc;gradientColor=#ea6b66;strokeColor=#b85450;" parent="1" vertex="1">
          <mxGeometry x="260" y="1320" width="400" height="70" as="geometry" />
        </mxCell>
        <mxCell id="Yzk4ijdV4WM66uibdq7K-3" value="" style="edgeStyle=orthogonalEdgeStyle;rounded=0;orthogonalLoop=1;jettySize=auto;html=1;" parent="1" source="Yzk4ijdV4WM66uibdq7K-1" target="Yzk4ijdV4WM66uibdq7K-2" edge="1">
          <mxGeometry relative="1" as="geometry" />
        </mxCell>
        <mxCell id="Yzk4ijdV4WM66uibdq7K-1" value="1" style="rounded=0;whiteSpace=wrap;html=1;shadow=1;sketch=1;" parent="1" vertex="1">
          <mxGeometry x="240" y="160" width="40" height="30" as="geometry" />
        </mxCell>
        <mxCell id="Yzk4ijdV4WM66uibdq7K-5" value="" style="edgeStyle=orthogonalEdgeStyle;rounded=0;orthogonalLoop=1;jettySize=auto;html=1;" parent="1" source="Yzk4ijdV4WM66uibdq7K-2" target="Yzk4ijdV4WM66uibdq7K-4" edge="1">
          <mxGeometry relative="1" as="geometry" />
        </mxCell>
        <mxCell id="Yzk4ijdV4WM66uibdq7K-2" value="2" style="rounded=0;whiteSpace=wrap;html=1;shadow=1;sketch=1;" parent="1" vertex="1">
          <mxGeometry x="320" y="160" width="40" height="30" as="geometry" />
        </mxCell>
        <mxCell id="Yzk4ijdV4WM66uibdq7K-7" value="" style="edgeStyle=orthogonalEdgeStyle;rounded=0;orthogonalLoop=1;jettySize=auto;html=1;" parent="1" source="Yzk4ijdV4WM66uibdq7K-4" target="Yzk4ijdV4WM66uibdq7K-6" edge="1">
          <mxGeometry relative="1" as="geometry" />
        </mxCell>
        <mxCell id="Yzk4ijdV4WM66uibdq7K-4" value="3" style="rounded=0;whiteSpace=wrap;html=1;shadow=1;sketch=1;" parent="1" vertex="1">
          <mxGeometry x="400" y="160" width="40" height="30" as="geometry" />
        </mxCell>
        <mxCell id="Yzk4ijdV4WM66uibdq7K-9" value="" style="edgeStyle=orthogonalEdgeStyle;rounded=0;orthogonalLoop=1;jettySize=auto;html=1;" parent="1" source="Yzk4ijdV4WM66uibdq7K-6" target="Yzk4ijdV4WM66uibdq7K-8" edge="1">
          <mxGeometry relative="1" as="geometry" />
        </mxCell>
        <mxCell id="Yzk4ijdV4WM66uibdq7K-6" value="4" style="rounded=0;whiteSpace=wrap;html=1;shadow=1;sketch=1;" parent="1" vertex="1">
          <mxGeometry x="480" y="160" width="40" height="30" as="geometry" />
        </mxCell>
        <mxCell id="Yzk4ijdV4WM66uibdq7K-8" value="5" style="rounded=0;whiteSpace=wrap;html=1;shadow=1;sketch=1;" parent="1" vertex="1">
          <mxGeometry x="560" y="160" width="40" height="30" as="geometry" />
        </mxCell>
        <mxCell id="Yzk4ijdV4WM66uibdq7K-10" value="null" style="rounded=0;whiteSpace=wrap;html=1;shadow=1;sketch=1;fillColor=#dae8fc;gradientColor=#7ea6e0;strokeColor=#6c8ebf;" parent="1" vertex="1">
          <mxGeometry x="200" y="320" width="40" height="30" as="geometry" />
        </mxCell>
        <mxCell id="Yzk4ijdV4WM66uibdq7K-12" value="" style="edgeStyle=orthogonalEdgeStyle;rounded=0;orthogonalLoop=1;jettySize=auto;html=1;sketch=1;" parent="1" source="Yzk4ijdV4WM66uibdq7K-13" target="Yzk4ijdV4WM66uibdq7K-15" edge="1">
          <mxGeometry relative="1" as="geometry" />
        </mxCell>
        <mxCell id="Yzk4ijdV4WM66uibdq7K-13" value="1" style="rounded=0;whiteSpace=wrap;html=1;shadow=1;sketch=1;fillColor=#f8cecc;gradientColor=#ea6b66;strokeColor=#b85450;" parent="1" vertex="1">
          <mxGeometry x="280" y="320" width="40" height="30" as="geometry" />
        </mxCell>
        <mxCell id="Yzk4ijdV4WM66uibdq7K-14" value="" style="edgeStyle=orthogonalEdgeStyle;rounded=0;orthogonalLoop=1;jettySize=auto;html=1;sketch=1;" parent="1" source="Yzk4ijdV4WM66uibdq7K-15" target="Yzk4ijdV4WM66uibdq7K-17" edge="1">
          <mxGeometry relative="1" as="geometry" />
        </mxCell>
        <mxCell id="Yzk4ijdV4WM66uibdq7K-15" value="2" style="rounded=0;whiteSpace=wrap;html=1;shadow=1;sketch=1;" parent="1" vertex="1">
          <mxGeometry x="360" y="320" width="40" height="30" as="geometry" />
        </mxCell>
        <mxCell id="Yzk4ijdV4WM66uibdq7K-16" value="" style="edgeStyle=orthogonalEdgeStyle;rounded=0;orthogonalLoop=1;jettySize=auto;html=1;sketch=1;" parent="1" source="Yzk4ijdV4WM66uibdq7K-17" target="Yzk4ijdV4WM66uibdq7K-19" edge="1">
          <mxGeometry relative="1" as="geometry" />
        </mxCell>
        <mxCell id="Yzk4ijdV4WM66uibdq7K-17" value="3" style="rounded=0;whiteSpace=wrap;html=1;shadow=1;sketch=1;" parent="1" vertex="1">
          <mxGeometry x="440" y="320" width="40" height="30" as="geometry" />
        </mxCell>
        <mxCell id="Yzk4ijdV4WM66uibdq7K-18" value="" style="edgeStyle=orthogonalEdgeStyle;rounded=0;orthogonalLoop=1;jettySize=auto;html=1;sketch=1;" parent="1" source="Yzk4ijdV4WM66uibdq7K-19" target="Yzk4ijdV4WM66uibdq7K-20" edge="1">
          <mxGeometry relative="1" as="geometry" />
        </mxCell>
        <mxCell id="Yzk4ijdV4WM66uibdq7K-19" value="4" style="rounded=0;whiteSpace=wrap;html=1;shadow=1;sketch=1;" parent="1" vertex="1">
          <mxGeometry x="520" y="320" width="40" height="30" as="geometry" />
        </mxCell>
        <mxCell id="Yzk4ijdV4WM66uibdq7K-20" value="5" style="rounded=0;whiteSpace=wrap;html=1;shadow=1;sketch=1;" parent="1" vertex="1">
          <mxGeometry x="600" y="320" width="40" height="30" as="geometry" />
        </mxCell>
        <mxCell id="Yzk4ijdV4WM66uibdq7K-21" value="" style="rounded=0;whiteSpace=wrap;html=1;shadow=1;sketch=1;fillColor=#f8cecc;gradientColor=#ea6b66;strokeColor=#b85450;" parent="1" vertex="1">
          <mxGeometry x="320" y="260" width="30" height="20" as="geometry" />
        </mxCell>
        <mxCell id="Yzk4ijdV4WM66uibdq7K-22" value="" style="rounded=0;whiteSpace=wrap;html=1;shadow=1;sketch=1;fillColor=#dae8fc;gradientColor=#7ea6e0;strokeColor=#6c8ebf;" parent="1" vertex="1">
          <mxGeometry x="515" y="260" width="35" height="20" as="geometry" />
        </mxCell>
        <mxCell id="Yzk4ijdV4WM66uibdq7K-24" value="&lt;font style=&quot;font-size: 14px&quot; face=&quot;Comic Sans MS&quot;&gt;prev指针&lt;/font&gt;" style="text;html=1;strokeColor=none;fillColor=none;align=center;verticalAlign=middle;whiteSpace=wrap;rounded=0;shadow=1;sketch=1;" parent="1" vertex="1">
          <mxGeometry x="450" y="255" width="60" height="30" as="geometry" />
        </mxCell>
        <mxCell id="Yzk4ijdV4WM66uibdq7K-25" value="&lt;font face=&quot;Comic Sans MS&quot; style=&quot;font-size: 14px&quot;&gt;当前节点&lt;/font&gt;" style="text;html=1;strokeColor=none;fillColor=none;align=center;verticalAlign=middle;whiteSpace=wrap;rounded=0;shadow=1;sketch=1;" parent="1" vertex="1">
          <mxGeometry x="250" y="255" width="60" height="30" as="geometry" />
        </mxCell>
        <mxCell id="Yzk4ijdV4WM66uibdq7K-26" value="null" style="rounded=0;whiteSpace=wrap;html=1;shadow=1;sketch=1;" parent="1" vertex="1">
          <mxGeometry x="200" y="440" width="40" height="30" as="geometry" />
        </mxCell>
        <mxCell id="Yzk4ijdV4WM66uibdq7K-36" style="edgeStyle=orthogonalEdgeStyle;rounded=0;orthogonalLoop=1;jettySize=auto;html=1;exitX=0;exitY=0.5;exitDx=0;exitDy=0;entryX=1;entryY=0.5;entryDx=0;entryDy=0;fontFamily=Comic Sans MS;fontSize=14;sketch=1;" parent="1" source="Yzk4ijdV4WM66uibdq7K-28" target="Yzk4ijdV4WM66uibdq7K-26" edge="1">
          <mxGeometry relative="1" as="geometry" />
        </mxCell>
        <mxCell id="Yzk4ijdV4WM66uibdq7K-28" value="1" style="rounded=0;whiteSpace=wrap;html=1;shadow=1;sketch=1;fillColor=#dae8fc;gradientColor=#7ea6e0;strokeColor=#6c8ebf;" parent="1" vertex="1">
          <mxGeometry x="280" y="440" width="40" height="30" as="geometry" />
        </mxCell>
        <mxCell id="Yzk4ijdV4WM66uibdq7K-29" value="" style="edgeStyle=orthogonalEdgeStyle;rounded=0;orthogonalLoop=1;jettySize=auto;html=1;sketch=1;" parent="1" source="Yzk4ijdV4WM66uibdq7K-30" target="Yzk4ijdV4WM66uibdq7K-32" edge="1">
          <mxGeometry relative="1" as="geometry" />
        </mxCell>
        <mxCell id="Yzk4ijdV4WM66uibdq7K-30" value="2" style="rounded=0;whiteSpace=wrap;html=1;shadow=1;sketch=1;fillColor=#f8cecc;gradientColor=#ea6b66;strokeColor=#b85450;" parent="1" vertex="1">
          <mxGeometry x="360" y="440" width="40" height="30" as="geometry" />
        </mxCell>
        <mxCell id="Yzk4ijdV4WM66uibdq7K-31" value="" style="edgeStyle=orthogonalEdgeStyle;rounded=0;orthogonalLoop=1;jettySize=auto;html=1;sketch=1;" parent="1" source="Yzk4ijdV4WM66uibdq7K-32" target="Yzk4ijdV4WM66uibdq7K-34" edge="1">
          <mxGeometry relative="1" as="geometry" />
        </mxCell>
        <mxCell id="Yzk4ijdV4WM66uibdq7K-32" value="3" style="rounded=0;whiteSpace=wrap;html=1;shadow=1;sketch=1;" parent="1" vertex="1">
          <mxGeometry x="440" y="440" width="40" height="30" as="geometry" />
        </mxCell>
        <mxCell id="Yzk4ijdV4WM66uibdq7K-33" value="" style="edgeStyle=orthogonalEdgeStyle;rounded=0;orthogonalLoop=1;jettySize=auto;html=1;sketch=1;" parent="1" source="Yzk4ijdV4WM66uibdq7K-34" target="Yzk4ijdV4WM66uibdq7K-35" edge="1">
          <mxGeometry relative="1" as="geometry" />
        </mxCell>
        <mxCell id="Yzk4ijdV4WM66uibdq7K-34" value="4" style="rounded=0;whiteSpace=wrap;html=1;shadow=1;sketch=1;" parent="1" vertex="1">
          <mxGeometry x="520" y="440" width="40" height="30" as="geometry" />
        </mxCell>
        <mxCell id="Yzk4ijdV4WM66uibdq7K-35" value="5" style="rounded=0;whiteSpace=wrap;html=1;shadow=1;sketch=1;" parent="1" vertex="1">
          <mxGeometry x="600" y="440" width="40" height="30" as="geometry" />
        </mxCell>
        <mxCell id="Yzk4ijdV4WM66uibdq7K-37" value="null" style="rounded=0;whiteSpace=wrap;html=1;shadow=1;sketch=1;" parent="1" vertex="1">
          <mxGeometry x="200" y="569.5" width="40" height="30" as="geometry" />
        </mxCell>
        <mxCell id="Yzk4ijdV4WM66uibdq7K-38" style="edgeStyle=orthogonalEdgeStyle;rounded=0;orthogonalLoop=1;jettySize=auto;html=1;exitX=0;exitY=0.5;exitDx=0;exitDy=0;entryX=1;entryY=0.5;entryDx=0;entryDy=0;fontFamily=Comic Sans MS;fontSize=14;sketch=1;" parent="1" source="Yzk4ijdV4WM66uibdq7K-39" target="Yzk4ijdV4WM66uibdq7K-37" edge="1">
          <mxGeometry relative="1" as="geometry" />
        </mxCell>
        <mxCell id="Yzk4ijdV4WM66uibdq7K-39" value="1" style="rounded=0;whiteSpace=wrap;html=1;shadow=1;sketch=1;" parent="1" vertex="1">
          <mxGeometry x="280" y="569.5" width="40" height="30" as="geometry" />
        </mxCell>
        <mxCell id="Yzk4ijdV4WM66uibdq7K-47" style="edgeStyle=orthogonalEdgeStyle;rounded=0;orthogonalLoop=1;jettySize=auto;html=1;exitX=0;exitY=0.5;exitDx=0;exitDy=0;fontFamily=Comic Sans MS;fontSize=14;sketch=1;" parent="1" source="Yzk4ijdV4WM66uibdq7K-41" target="Yzk4ijdV4WM66uibdq7K-39" edge="1">
          <mxGeometry relative="1" as="geometry" />
        </mxCell>
        <mxCell id="Yzk4ijdV4WM66uibdq7K-41" value="2" style="rounded=0;whiteSpace=wrap;html=1;shadow=1;sketch=1;fillColor=#dae8fc;gradientColor=#7ea6e0;strokeColor=#6c8ebf;" parent="1" vertex="1">
          <mxGeometry x="360" y="569.5" width="40" height="30" as="geometry" />
        </mxCell>
        <mxCell id="Yzk4ijdV4WM66uibdq7K-42" value="" style="edgeStyle=orthogonalEdgeStyle;rounded=0;orthogonalLoop=1;jettySize=auto;html=1;sketch=1;" parent="1" source="Yzk4ijdV4WM66uibdq7K-43" target="Yzk4ijdV4WM66uibdq7K-45" edge="1">
          <mxGeometry relative="1" as="geometry" />
        </mxCell>
        <mxCell id="Yzk4ijdV4WM66uibdq7K-43" value="3" style="rounded=0;whiteSpace=wrap;html=1;shadow=1;sketch=1;fillColor=#f8cecc;gradientColor=#ea6b66;strokeColor=#b85450;" parent="1" vertex="1">
          <mxGeometry x="440" y="569.5" width="40" height="30" as="geometry" />
        </mxCell>
        <mxCell id="Yzk4ijdV4WM66uibdq7K-44" value="" style="edgeStyle=orthogonalEdgeStyle;rounded=0;orthogonalLoop=1;jettySize=auto;html=1;sketch=1;" parent="1" source="Yzk4ijdV4WM66uibdq7K-45" target="Yzk4ijdV4WM66uibdq7K-46" edge="1">
          <mxGeometry relative="1" as="geometry" />
        </mxCell>
        <mxCell id="Yzk4ijdV4WM66uibdq7K-45" value="4" style="rounded=0;whiteSpace=wrap;html=1;shadow=1;sketch=1;" parent="1" vertex="1">
          <mxGeometry x="520" y="569.5" width="40" height="30" as="geometry" />
        </mxCell>
        <mxCell id="Yzk4ijdV4WM66uibdq7K-46" value="5" style="rounded=0;whiteSpace=wrap;html=1;shadow=1;sketch=1;" parent="1" vertex="1">
          <mxGeometry x="600" y="569.5" width="40" height="30" as="geometry" />
        </mxCell>
        <mxCell id="Yzk4ijdV4WM66uibdq7K-48" value="null" style="rounded=0;whiteSpace=wrap;html=1;shadow=1;sketch=1;" parent="1" vertex="1">
          <mxGeometry x="200" y="690" width="40" height="30" as="geometry" />
        </mxCell>
        <mxCell id="Yzk4ijdV4WM66uibdq7K-49" style="edgeStyle=orthogonalEdgeStyle;rounded=0;orthogonalLoop=1;jettySize=auto;html=1;exitX=0;exitY=0.5;exitDx=0;exitDy=0;entryX=1;entryY=0.5;entryDx=0;entryDy=0;fontFamily=Comic Sans MS;fontSize=14;sketch=1;" parent="1" source="Yzk4ijdV4WM66uibdq7K-50" target="Yzk4ijdV4WM66uibdq7K-48" edge="1">
          <mxGeometry relative="1" as="geometry" />
        </mxCell>
        <mxCell id="Yzk4ijdV4WM66uibdq7K-50" value="1" style="rounded=0;whiteSpace=wrap;html=1;shadow=1;sketch=1;" parent="1" vertex="1">
          <mxGeometry x="280" y="690" width="40" height="30" as="geometry" />
        </mxCell>
        <mxCell id="Yzk4ijdV4WM66uibdq7K-51" style="edgeStyle=orthogonalEdgeStyle;rounded=0;orthogonalLoop=1;jettySize=auto;html=1;exitX=0;exitY=0.5;exitDx=0;exitDy=0;fontFamily=Comic Sans MS;fontSize=14;sketch=1;" parent="1" source="Yzk4ijdV4WM66uibdq7K-52" target="Yzk4ijdV4WM66uibdq7K-50" edge="1">
          <mxGeometry relative="1" as="geometry" />
        </mxCell>
        <mxCell id="Yzk4ijdV4WM66uibdq7K-52" value="2" style="rounded=0;whiteSpace=wrap;html=1;shadow=1;sketch=1;" parent="1" vertex="1">
          <mxGeometry x="360" y="690" width="40" height="30" as="geometry" />
        </mxCell>
        <mxCell id="Yzk4ijdV4WM66uibdq7K-58" style="edgeStyle=orthogonalEdgeStyle;rounded=0;orthogonalLoop=1;jettySize=auto;html=1;exitX=0;exitY=0.5;exitDx=0;exitDy=0;entryX=1;entryY=0.5;entryDx=0;entryDy=0;fontFamily=Comic Sans MS;fontSize=14;sketch=1;" parent="1" source="Yzk4ijdV4WM66uibdq7K-54" target="Yzk4ijdV4WM66uibdq7K-52" edge="1">
          <mxGeometry relative="1" as="geometry" />
        </mxCell>
        <mxCell id="Yzk4ijdV4WM66uibdq7K-54" value="3" style="rounded=0;whiteSpace=wrap;html=1;shadow=1;sketch=1;fillColor=#dae8fc;gradientColor=#7ea6e0;strokeColor=#6c8ebf;" parent="1" vertex="1">
          <mxGeometry x="440" y="690" width="40" height="30" as="geometry" />
        </mxCell>
        <mxCell id="Yzk4ijdV4WM66uibdq7K-55" value="" style="edgeStyle=orthogonalEdgeStyle;rounded=0;orthogonalLoop=1;jettySize=auto;html=1;sketch=1;" parent="1" source="Yzk4ijdV4WM66uibdq7K-56" target="Yzk4ijdV4WM66uibdq7K-57" edge="1">
          <mxGeometry relative="1" as="geometry" />
        </mxCell>
        <mxCell id="Yzk4ijdV4WM66uibdq7K-56" value="4" style="rounded=0;whiteSpace=wrap;html=1;shadow=1;sketch=1;fillColor=#f8cecc;gradientColor=#ea6b66;strokeColor=#b85450;" parent="1" vertex="1">
          <mxGeometry x="520" y="690" width="40" height="30" as="geometry" />
        </mxCell>
        <mxCell id="Yzk4ijdV4WM66uibdq7K-57" value="5" style="rounded=0;whiteSpace=wrap;html=1;shadow=1;sketch=1;" parent="1" vertex="1">
          <mxGeometry x="600" y="690" width="40" height="30" as="geometry" />
        </mxCell>
        <mxCell id="Yzk4ijdV4WM66uibdq7K-59" value="null" style="rounded=0;whiteSpace=wrap;html=1;shadow=1;sketch=1;" parent="1" vertex="1">
          <mxGeometry x="200" y="810" width="40" height="30" as="geometry" />
        </mxCell>
        <mxCell id="Yzk4ijdV4WM66uibdq7K-60" style="edgeStyle=orthogonalEdgeStyle;rounded=0;orthogonalLoop=1;jettySize=auto;html=1;exitX=0;exitY=0.5;exitDx=0;exitDy=0;entryX=1;entryY=0.5;entryDx=0;entryDy=0;fontFamily=Comic Sans MS;fontSize=14;sketch=1;" parent="1" source="Yzk4ijdV4WM66uibdq7K-61" target="Yzk4ijdV4WM66uibdq7K-59" edge="1">
          <mxGeometry relative="1" as="geometry" />
        </mxCell>
        <mxCell id="Yzk4ijdV4WM66uibdq7K-61" value="1" style="rounded=0;whiteSpace=wrap;html=1;shadow=1;sketch=1;" parent="1" vertex="1">
          <mxGeometry x="280" y="810" width="40" height="30" as="geometry" />
        </mxCell>
        <mxCell id="Yzk4ijdV4WM66uibdq7K-62" style="edgeStyle=orthogonalEdgeStyle;rounded=0;orthogonalLoop=1;jettySize=auto;html=1;exitX=0;exitY=0.5;exitDx=0;exitDy=0;fontFamily=Comic Sans MS;fontSize=14;sketch=1;" parent="1" source="Yzk4ijdV4WM66uibdq7K-63" target="Yzk4ijdV4WM66uibdq7K-61" edge="1">
          <mxGeometry relative="1" as="geometry" />
        </mxCell>
        <mxCell id="Yzk4ijdV4WM66uibdq7K-63" value="2" style="rounded=0;whiteSpace=wrap;html=1;shadow=1;sketch=1;" parent="1" vertex="1">
          <mxGeometry x="360" y="810" width="40" height="30" as="geometry" />
        </mxCell>
        <mxCell id="Yzk4ijdV4WM66uibdq7K-64" style="edgeStyle=orthogonalEdgeStyle;rounded=0;orthogonalLoop=1;jettySize=auto;html=1;exitX=0;exitY=0.5;exitDx=0;exitDy=0;entryX=1;entryY=0.5;entryDx=0;entryDy=0;fontFamily=Comic Sans MS;fontSize=14;sketch=1;" parent="1" source="Yzk4ijdV4WM66uibdq7K-65" target="Yzk4ijdV4WM66uibdq7K-63" edge="1">
          <mxGeometry relative="1" as="geometry" />
        </mxCell>
        <mxCell id="Yzk4ijdV4WM66uibdq7K-65" value="3" style="rounded=0;whiteSpace=wrap;html=1;shadow=1;sketch=1;" parent="1" vertex="1">
          <mxGeometry x="440" y="810" width="40" height="30" as="geometry" />
        </mxCell>
        <mxCell id="Yzk4ijdV4WM66uibdq7K-69" style="edgeStyle=orthogonalEdgeStyle;rounded=0;orthogonalLoop=1;jettySize=auto;html=1;exitX=0;exitY=0.5;exitDx=0;exitDy=0;entryX=1;entryY=0.5;entryDx=0;entryDy=0;fontFamily=Comic Sans MS;fontSize=14;sketch=1;" parent="1" source="Yzk4ijdV4WM66uibdq7K-67" target="Yzk4ijdV4WM66uibdq7K-65" edge="1">
          <mxGeometry relative="1" as="geometry" />
        </mxCell>
        <mxCell id="Yzk4ijdV4WM66uibdq7K-67" value="4" style="rounded=0;whiteSpace=wrap;html=1;shadow=1;sketch=1;fillColor=#dae8fc;gradientColor=#7ea6e0;strokeColor=#6c8ebf;" parent="1" vertex="1">
          <mxGeometry x="520" y="810" width="40" height="30" as="geometry" />
        </mxCell>
        <mxCell id="Yzk4ijdV4WM66uibdq7K-68" value="5" style="rounded=0;whiteSpace=wrap;html=1;shadow=1;sketch=1;fillColor=#f8cecc;gradientColor=#ea6b66;strokeColor=#b85450;" parent="1" vertex="1">
          <mxGeometry x="600" y="810" width="40" height="30" as="geometry" />
        </mxCell>
        <mxCell id="Yzk4ijdV4WM66uibdq7K-70" value="null" style="rounded=0;whiteSpace=wrap;html=1;shadow=1;sketch=1;" parent="1" vertex="1">
          <mxGeometry x="200" y="930" width="40" height="30" as="geometry" />
        </mxCell>
        <mxCell id="Yzk4ijdV4WM66uibdq7K-71" style="edgeStyle=orthogonalEdgeStyle;rounded=0;orthogonalLoop=1;jettySize=auto;html=1;exitX=0;exitY=0.5;exitDx=0;exitDy=0;entryX=1;entryY=0.5;entryDx=0;entryDy=0;fontFamily=Comic Sans MS;fontSize=14;sketch=1;" parent="1" source="Yzk4ijdV4WM66uibdq7K-72" target="Yzk4ijdV4WM66uibdq7K-70" edge="1">
          <mxGeometry relative="1" as="geometry" />
        </mxCell>
        <mxCell id="Yzk4ijdV4WM66uibdq7K-72" value="1" style="rounded=0;whiteSpace=wrap;html=1;shadow=1;sketch=1;" parent="1" vertex="1">
          <mxGeometry x="280" y="930" width="40" height="30" as="geometry" />
        </mxCell>
        <mxCell id="Yzk4ijdV4WM66uibdq7K-73" style="edgeStyle=orthogonalEdgeStyle;rounded=0;orthogonalLoop=1;jettySize=auto;html=1;exitX=0;exitY=0.5;exitDx=0;exitDy=0;fontFamily=Comic Sans MS;fontSize=14;sketch=1;" parent="1" source="Yzk4ijdV4WM66uibdq7K-74" target="Yzk4ijdV4WM66uibdq7K-72" edge="1">
          <mxGeometry relative="1" as="geometry" />
        </mxCell>
        <mxCell id="Yzk4ijdV4WM66uibdq7K-74" value="2" style="rounded=0;whiteSpace=wrap;html=1;shadow=1;sketch=1;" parent="1" vertex="1">
          <mxGeometry x="360" y="930" width="40" height="30" as="geometry" />
        </mxCell>
        <mxCell id="Yzk4ijdV4WM66uibdq7K-75" style="edgeStyle=orthogonalEdgeStyle;rounded=0;orthogonalLoop=1;jettySize=auto;html=1;exitX=0;exitY=0.5;exitDx=0;exitDy=0;entryX=1;entryY=0.5;entryDx=0;entryDy=0;fontFamily=Comic Sans MS;fontSize=14;sketch=1;" parent="1" source="Yzk4ijdV4WM66uibdq7K-76" target="Yzk4ijdV4WM66uibdq7K-74" edge="1">
          <mxGeometry relative="1" as="geometry" />
        </mxCell>
        <mxCell id="Yzk4ijdV4WM66uibdq7K-76" value="3" style="rounded=0;whiteSpace=wrap;html=1;shadow=1;sketch=1;" parent="1" vertex="1">
          <mxGeometry x="440" y="930" width="40" height="30" as="geometry" />
        </mxCell>
        <mxCell id="Yzk4ijdV4WM66uibdq7K-77" style="edgeStyle=orthogonalEdgeStyle;rounded=0;orthogonalLoop=1;jettySize=auto;html=1;exitX=0;exitY=0.5;exitDx=0;exitDy=0;entryX=1;entryY=0.5;entryDx=0;entryDy=0;fontFamily=Comic Sans MS;fontSize=14;sketch=1;" parent="1" source="Yzk4ijdV4WM66uibdq7K-78" target="Yzk4ijdV4WM66uibdq7K-76" edge="1">
          <mxGeometry relative="1" as="geometry" />
        </mxCell>
        <mxCell id="Yzk4ijdV4WM66uibdq7K-78" value="4" style="rounded=0;whiteSpace=wrap;html=1;shadow=1;sketch=1;" parent="1" vertex="1">
          <mxGeometry x="520" y="930" width="40" height="30" as="geometry" />
        </mxCell>
        <mxCell id="Yzk4ijdV4WM66uibdq7K-80" style="edgeStyle=orthogonalEdgeStyle;rounded=0;orthogonalLoop=1;jettySize=auto;html=1;exitX=0;exitY=0.5;exitDx=0;exitDy=0;entryX=1;entryY=0.5;entryDx=0;entryDy=0;fontFamily=Comic Sans MS;fontSize=14;sketch=1;" parent="1" source="Yzk4ijdV4WM66uibdq7K-79" target="Yzk4ijdV4WM66uibdq7K-78" edge="1">
          <mxGeometry relative="1" as="geometry" />
        </mxCell>
        <mxCell id="Yzk4ijdV4WM66uibdq7K-79" value="5" style="rounded=0;whiteSpace=wrap;html=1;shadow=1;sketch=1;fillColor=#dae8fc;gradientColor=#7ea6e0;strokeColor=#6c8ebf;" parent="1" vertex="1">
          <mxGeometry x="600" y="930" width="40" height="30" as="geometry" />
        </mxCell>
        <mxCell id="Yzk4ijdV4WM66uibdq7K-81" value="初始状态" style="text;html=1;strokeColor=none;fillColor=none;align=center;verticalAlign=middle;whiteSpace=wrap;rounded=0;shadow=1;sketch=1;fontFamily=Comic Sans MS;fontSize=14;" parent="1" vertex="1">
          <mxGeometry x="390" y="100" width="60" height="30" as="geometry" />
        </mxCell>
        <mxCell id="Yzk4ijdV4WM66uibdq7K-82" value="第一次迭代" style="text;html=1;strokeColor=none;fillColor=none;align=center;verticalAlign=middle;whiteSpace=wrap;rounded=0;shadow=1;sketch=1;fontFamily=Comic Sans MS;fontSize=14;" parent="1" vertex="1">
          <mxGeometry x="380" y="400" width="80" height="30" as="geometry" />
        </mxCell>
        <mxCell id="Yzk4ijdV4WM66uibdq7K-83" value="第二次迭代" style="text;html=1;strokeColor=none;fillColor=none;align=center;verticalAlign=middle;whiteSpace=wrap;rounded=0;shadow=1;sketch=1;fontFamily=Comic Sans MS;fontSize=14;" parent="1" vertex="1">
          <mxGeometry x="380" y="530" width="80" height="30" as="geometry" />
        </mxCell>
        <mxCell id="Yzk4ijdV4WM66uibdq7K-84" value="第三次迭代" style="text;html=1;strokeColor=none;fillColor=none;align=center;verticalAlign=middle;whiteSpace=wrap;rounded=0;shadow=1;sketch=1;fontFamily=Comic Sans MS;fontSize=14;" parent="1" vertex="1">
          <mxGeometry x="380" y="650" width="80" height="30" as="geometry" />
        </mxCell>
        <mxCell id="Yzk4ijdV4WM66uibdq7K-85" value="第四次迭代" style="text;html=1;strokeColor=none;fillColor=none;align=center;verticalAlign=middle;whiteSpace=wrap;rounded=0;shadow=1;sketch=1;fontFamily=Comic Sans MS;fontSize=14;" parent="1" vertex="1">
          <mxGeometry x="380" y="770" width="80" height="30" as="geometry" />
        </mxCell>
        <mxCell id="Yzk4ijdV4WM66uibdq7K-86" value="第五次迭代" style="text;html=1;strokeColor=none;fillColor=none;align=center;verticalAlign=middle;whiteSpace=wrap;rounded=0;shadow=1;sketch=1;fontFamily=Comic Sans MS;fontSize=14;" parent="1" vertex="1">
          <mxGeometry x="380" y="890" width="80" height="30" as="geometry" />
        </mxCell>
        <mxCell id="Yzk4ijdV4WM66uibdq7K-125" style="edgeStyle=orthogonalEdgeStyle;sketch=1;orthogonalLoop=1;jettySize=auto;html=1;exitX=0.5;exitY=1;exitDx=0;exitDy=0;entryX=0.5;entryY=1;entryDx=0;entryDy=0;fontFamily=Comic Sans MS;fontSize=14;fontColor=#000000;curved=1;" parent="1" source="Yzk4ijdV4WM66uibdq7K-88" target="Yzk4ijdV4WM66uibdq7K-92" edge="1">
          <mxGeometry relative="1" as="geometry">
            <Array as="points">
              <mxPoint x="200" y="1420" />
              <mxPoint x="380" y="1420" />
            </Array>
          </mxGeometry>
        </mxCell>
        <mxCell id="Yzk4ijdV4WM66uibdq7K-88" value="1" style="rounded=0;whiteSpace=wrap;html=1;shadow=1;sketch=1;" parent="1" vertex="1">
          <mxGeometry x="180" y="1340" width="40" height="30" as="geometry" />
        </mxCell>
        <mxCell id="Yzk4ijdV4WM66uibdq7K-90" value="null" style="rounded=0;whiteSpace=wrap;html=1;shadow=1;sketch=1;" parent="1" vertex="1">
          <mxGeometry x="280" y="1340" width="40" height="30" as="geometry" />
        </mxCell>
        <mxCell id="Yzk4ijdV4WM66uibdq7K-124" style="edgeStyle=orthogonalEdgeStyle;rounded=0;sketch=1;orthogonalLoop=1;jettySize=auto;html=1;exitX=0;exitY=0.5;exitDx=0;exitDy=0;entryX=1;entryY=0.5;entryDx=0;entryDy=0;fontFamily=Comic Sans MS;fontSize=14;fontColor=#000000;" parent="1" source="Yzk4ijdV4WM66uibdq7K-92" target="Yzk4ijdV4WM66uibdq7K-90" edge="1">
          <mxGeometry relative="1" as="geometry" />
        </mxCell>
        <mxCell id="Yzk4ijdV4WM66uibdq7K-92" value="2" style="rounded=0;whiteSpace=wrap;html=1;shadow=1;sketch=1;" parent="1" vertex="1">
          <mxGeometry x="360" y="1340" width="40" height="30" as="geometry" />
        </mxCell>
        <mxCell id="Yzk4ijdV4WM66uibdq7K-123" style="edgeStyle=orthogonalEdgeStyle;rounded=0;sketch=1;orthogonalLoop=1;jettySize=auto;html=1;exitX=0;exitY=0.5;exitDx=0;exitDy=0;entryX=1;entryY=0.5;entryDx=0;entryDy=0;fontFamily=Comic Sans MS;fontSize=14;fontColor=#000000;" parent="1" source="Yzk4ijdV4WM66uibdq7K-94" target="Yzk4ijdV4WM66uibdq7K-92" edge="1">
          <mxGeometry relative="1" as="geometry" />
        </mxCell>
        <mxCell id="Yzk4ijdV4WM66uibdq7K-94" value="3" style="rounded=0;whiteSpace=wrap;html=1;shadow=1;sketch=1;" parent="1" vertex="1">
          <mxGeometry x="440" y="1340" width="40" height="30" as="geometry" />
        </mxCell>
        <mxCell id="Yzk4ijdV4WM66uibdq7K-122" style="edgeStyle=orthogonalEdgeStyle;rounded=0;sketch=1;orthogonalLoop=1;jettySize=auto;html=1;exitX=0;exitY=0.5;exitDx=0;exitDy=0;entryX=1;entryY=0.5;entryDx=0;entryDy=0;fontFamily=Comic Sans MS;fontSize=14;fontColor=#000000;" parent="1" source="Yzk4ijdV4WM66uibdq7K-95" target="Yzk4ijdV4WM66uibdq7K-94" edge="1">
          <mxGeometry relative="1" as="geometry" />
        </mxCell>
        <mxCell id="Yzk4ijdV4WM66uibdq7K-95" value="4" style="rounded=0;whiteSpace=wrap;html=1;shadow=1;sketch=1;" parent="1" vertex="1">
          <mxGeometry x="520" y="1340" width="40" height="30" as="geometry" />
        </mxCell>
        <mxCell id="Yzk4ijdV4WM66uibdq7K-99" value="&lt;div class=&quot;okr-block-clipboard&quot;&gt;&lt;/div&gt;&lt;div&gt;&lt;font color=&quot;#ff3333&quot;&gt;红色框&lt;/font&gt;表示由reverseList返回的链表&lt;/div&gt;&lt;div&gt;其中&lt;font color=&quot;#3399ff&quot;&gt;蓝色&lt;/font&gt;节点为头节点，也就是&lt;span&gt;newHead &lt;/span&gt;&lt;/div&gt;&lt;div class=&quot;okr-block-clipboard&quot;&gt;&lt;/div&gt;" style="text;html=1;strokeColor=none;fillColor=none;align=center;verticalAlign=middle;whiteSpace=wrap;rounded=0;shadow=1;sketch=1;fontFamily=Comic Sans MS;fontSize=14;" parent="1" vertex="1">
          <mxGeometry x="330" y="1250" width="260" height="60" as="geometry" />
        </mxCell>
        <mxCell id="Yzk4ijdV4WM66uibdq7K-104" value="" style="edgeStyle=orthogonalEdgeStyle;rounded=0;orthogonalLoop=1;jettySize=auto;html=1;" parent="1" source="Yzk4ijdV4WM66uibdq7K-105" target="Yzk4ijdV4WM66uibdq7K-107" edge="1">
          <mxGeometry relative="1" as="geometry" />
        </mxCell>
        <mxCell id="Yzk4ijdV4WM66uibdq7K-105" value="1" style="rounded=0;whiteSpace=wrap;html=1;shadow=1;sketch=1;" parent="1" vertex="1">
          <mxGeometry x="240" y="1160" width="40" height="30" as="geometry" />
        </mxCell>
        <mxCell id="Yzk4ijdV4WM66uibdq7K-106" value="" style="edgeStyle=orthogonalEdgeStyle;rounded=0;orthogonalLoop=1;jettySize=auto;html=1;" parent="1" source="Yzk4ijdV4WM66uibdq7K-107" target="Yzk4ijdV4WM66uibdq7K-109" edge="1">
          <mxGeometry relative="1" as="geometry" />
        </mxCell>
        <mxCell id="Yzk4ijdV4WM66uibdq7K-107" value="2" style="rounded=0;whiteSpace=wrap;html=1;shadow=1;sketch=1;" parent="1" vertex="1">
          <mxGeometry x="320" y="1160" width="40" height="30" as="geometry" />
        </mxCell>
        <mxCell id="Yzk4ijdV4WM66uibdq7K-108" value="" style="edgeStyle=orthogonalEdgeStyle;rounded=0;orthogonalLoop=1;jettySize=auto;html=1;" parent="1" source="Yzk4ijdV4WM66uibdq7K-109" target="Yzk4ijdV4WM66uibdq7K-111" edge="1">
          <mxGeometry relative="1" as="geometry" />
        </mxCell>
        <mxCell id="Yzk4ijdV4WM66uibdq7K-109" value="3" style="rounded=0;whiteSpace=wrap;html=1;shadow=1;sketch=1;" parent="1" vertex="1">
          <mxGeometry x="400" y="1160" width="40" height="30" as="geometry" />
        </mxCell>
        <mxCell id="Yzk4ijdV4WM66uibdq7K-110" value="" style="edgeStyle=orthogonalEdgeStyle;rounded=0;orthogonalLoop=1;jettySize=auto;html=1;" parent="1" source="Yzk4ijdV4WM66uibdq7K-111" target="Yzk4ijdV4WM66uibdq7K-112" edge="1">
          <mxGeometry relative="1" as="geometry" />
        </mxCell>
        <mxCell id="Yzk4ijdV4WM66uibdq7K-111" value="4" style="rounded=0;whiteSpace=wrap;html=1;shadow=1;sketch=1;" parent="1" vertex="1">
          <mxGeometry x="480" y="1160" width="40" height="30" as="geometry" />
        </mxCell>
        <mxCell id="Yzk4ijdV4WM66uibdq7K-112" value="5" style="rounded=0;whiteSpace=wrap;html=1;shadow=1;sketch=1;" parent="1" vertex="1">
          <mxGeometry x="560" y="1160" width="40" height="30" as="geometry" />
        </mxCell>
        <mxCell id="Yzk4ijdV4WM66uibdq7K-113" value="初始状态" style="text;html=1;strokeColor=none;fillColor=none;align=center;verticalAlign=middle;whiteSpace=wrap;rounded=0;shadow=1;sketch=1;fontFamily=Comic Sans MS;fontSize=14;" parent="1" vertex="1">
          <mxGeometry x="390" y="1100" width="60" height="30" as="geometry" />
        </mxCell>
        <mxCell id="Yzk4ijdV4WM66uibdq7K-121" style="edgeStyle=orthogonalEdgeStyle;rounded=0;sketch=1;orthogonalLoop=1;jettySize=auto;html=1;exitX=0;exitY=0.5;exitDx=0;exitDy=0;fontFamily=Comic Sans MS;fontSize=14;fontColor=#000000;" parent="1" source="Yzk4ijdV4WM66uibdq7K-117" target="Yzk4ijdV4WM66uibdq7K-95" edge="1">
          <mxGeometry relative="1" as="geometry" />
        </mxCell>
        <mxCell id="Yzk4ijdV4WM66uibdq7K-117" value="5" style="rounded=0;whiteSpace=wrap;html=1;shadow=1;sketch=1;fillColor=#dae8fc;gradientColor=#7ea6e0;strokeColor=#6c8ebf;" parent="1" vertex="1">
          <mxGeometry x="600" y="1340" width="40" height="30" as="geometry" />
        </mxCell>
        <mxCell id="Yzk4ijdV4WM66uibdq7K-120" value="head指针" style="text;html=1;strokeColor=none;fillColor=none;align=center;verticalAlign=middle;whiteSpace=wrap;rounded=0;shadow=1;sketch=1;fontFamily=Comic Sans MS;fontSize=14;" parent="1" vertex="1">
          <mxGeometry x="160" y="1300" width="80" height="30" as="geometry" />
        </mxCell>
        <mxCell id="Yzk4ijdV4WM66uibdq7K-128" value="" style="rounded=0;whiteSpace=wrap;html=1;shadow=1;sketch=1;fontFamily=Comic Sans MS;fontSize=14;opacity=40;dashed=1;fillColor=#f8cecc;gradientColor=#ea6b66;strokeColor=#b85450;" parent="1" vertex="1">
          <mxGeometry x="260" y="1560" width="400" height="70" as="geometry" />
        </mxCell>
        <mxCell id="Yzk4ijdV4WM66uibdq7K-143" value="" style="edgeStyle=orthogonalEdgeStyle;curved=1;sketch=1;orthogonalLoop=1;jettySize=auto;html=1;fontFamily=Comic Sans MS;fontSize=14;fontColor=#3399FF;" parent="1" source="Yzk4ijdV4WM66uibdq7K-130" target="Yzk4ijdV4WM66uibdq7K-142" edge="1">
          <mxGeometry relative="1" as="geometry" />
        </mxCell>
        <mxCell id="Yzk4ijdV4WM66uibdq7K-130" value="1" style="rounded=0;whiteSpace=wrap;html=1;shadow=1;sketch=1;" parent="1" vertex="1">
          <mxGeometry x="180" y="1580" width="40" height="30" as="geometry" />
        </mxCell>
        <mxCell id="Yzk4ijdV4WM66uibdq7K-132" style="edgeStyle=orthogonalEdgeStyle;rounded=0;sketch=1;orthogonalLoop=1;jettySize=auto;html=1;exitX=0;exitY=0.5;exitDx=0;exitDy=0;entryX=1;entryY=0.5;entryDx=0;entryDy=0;fontFamily=Comic Sans MS;fontSize=14;fontColor=#000000;" parent="1" source="Yzk4ijdV4WM66uibdq7K-133" target="Yzk4ijdV4WM66uibdq7K-130" edge="1">
          <mxGeometry relative="1" as="geometry">
            <mxPoint x="320" y="1595" as="targetPoint" />
          </mxGeometry>
        </mxCell>
        <mxCell id="Yzk4ijdV4WM66uibdq7K-133" value="2" style="rounded=0;whiteSpace=wrap;html=1;shadow=1;sketch=1;" parent="1" vertex="1">
          <mxGeometry x="360" y="1580" width="40" height="30" as="geometry" />
        </mxCell>
        <mxCell id="Yzk4ijdV4WM66uibdq7K-134" style="edgeStyle=orthogonalEdgeStyle;rounded=0;sketch=1;orthogonalLoop=1;jettySize=auto;html=1;exitX=0;exitY=0.5;exitDx=0;exitDy=0;entryX=1;entryY=0.5;entryDx=0;entryDy=0;fontFamily=Comic Sans MS;fontSize=14;fontColor=#000000;" parent="1" source="Yzk4ijdV4WM66uibdq7K-135" target="Yzk4ijdV4WM66uibdq7K-133" edge="1">
          <mxGeometry relative="1" as="geometry" />
        </mxCell>
        <mxCell id="Yzk4ijdV4WM66uibdq7K-135" value="3" style="rounded=0;whiteSpace=wrap;html=1;shadow=1;sketch=1;" parent="1" vertex="1">
          <mxGeometry x="440" y="1580" width="40" height="30" as="geometry" />
        </mxCell>
        <mxCell id="Yzk4ijdV4WM66uibdq7K-136" style="edgeStyle=orthogonalEdgeStyle;rounded=0;sketch=1;orthogonalLoop=1;jettySize=auto;html=1;exitX=0;exitY=0.5;exitDx=0;exitDy=0;entryX=1;entryY=0.5;entryDx=0;entryDy=0;fontFamily=Comic Sans MS;fontSize=14;fontColor=#000000;" parent="1" source="Yzk4ijdV4WM66uibdq7K-137" target="Yzk4ijdV4WM66uibdq7K-135" edge="1">
          <mxGeometry relative="1" as="geometry" />
        </mxCell>
        <mxCell id="Yzk4ijdV4WM66uibdq7K-137" value="4" style="rounded=0;whiteSpace=wrap;html=1;shadow=1;sketch=1;" parent="1" vertex="1">
          <mxGeometry x="520" y="1580" width="40" height="30" as="geometry" />
        </mxCell>
        <mxCell id="Yzk4ijdV4WM66uibdq7K-139" style="edgeStyle=orthogonalEdgeStyle;rounded=0;sketch=1;orthogonalLoop=1;jettySize=auto;html=1;exitX=0;exitY=0.5;exitDx=0;exitDy=0;fontFamily=Comic Sans MS;fontSize=14;fontColor=#000000;" parent="1" source="Yzk4ijdV4WM66uibdq7K-140" target="Yzk4ijdV4WM66uibdq7K-137" edge="1">
          <mxGeometry relative="1" as="geometry" />
        </mxCell>
        <mxCell id="Yzk4ijdV4WM66uibdq7K-140" value="5" style="rounded=0;whiteSpace=wrap;html=1;shadow=1;sketch=1;fillColor=#dae8fc;gradientColor=#7ea6e0;strokeColor=#6c8ebf;" parent="1" vertex="1">
          <mxGeometry x="600" y="1580" width="40" height="30" as="geometry" />
        </mxCell>
        <mxCell id="Yzk4ijdV4WM66uibdq7K-142" value="null" style="rounded=0;whiteSpace=wrap;html=1;shadow=1;sketch=1;" parent="1" vertex="1">
          <mxGeometry x="100" y="1580" width="40" height="30" as="geometry" />
        </mxCell>
        <mxCell id="Yzk4ijdV4WM66uibdq7K-144" value="&lt;div class=&quot;okr-block-clipboard&quot;&gt;&lt;/div&gt;&lt;div&gt;&lt;font color=&quot;#000a20&quot;&gt;拿到了由reverseList返回的链表之后，我们需要把head.next节点指向head节点&lt;/font&gt;&lt;/div&gt;&lt;div&gt;&lt;font color=&quot;#000a20&quot;&gt;因为当前head节点属于链表的最后一个节点，需要把head节点指向null。这样就完成了本次递归。&lt;/font&gt;&lt;/div&gt;&lt;br&gt;&lt;div class=&quot;okr-block-clipboard&quot;&gt;&lt;/div&gt;" style="text;html=1;strokeColor=none;fillColor=none;align=center;verticalAlign=middle;whiteSpace=wrap;rounded=0;shadow=1;sketch=1;fontFamily=Comic Sans MS;fontSize=14;" parent="1" vertex="1">
          <mxGeometry x="330" y="1450" width="260" height="90" as="geometry" />
        </mxCell>
        <mxCell id="Yzk4ijdV4WM66uibdq7K-145" value="head指针" style="text;html=1;strokeColor=none;fillColor=none;align=center;verticalAlign=middle;whiteSpace=wrap;rounded=0;shadow=1;sketch=1;fontFamily=Comic Sans MS;fontSize=14;" parent="1" vertex="1">
          <mxGeometry x="160" y="1540" width="80" height="30" as="geometry" />
        </mxCell>
      </root>
    </mxGraphModel>
  </diagram>
</mxfile>
